<svg width="64" height="64" viewBox="0 0 64 64" fill="none" xmlns="http://www.w3.org/2000/svg">
<path d="M28.8568 13.68H42.7422L40.4458 24.6645C39.8663 27.4364 36.1222 27.9358 34.8364 25.4128L28.8568 13.68Z" fill="#4099FF"/>
<path d="M35.139 50.32H21.2536L23.55 39.3355C24.1295 36.5636 27.8736 36.0642 29.1594 38.5872L35.139 50.32Z" fill="#4099FF"/>
<path d="M53.3067 13.68L45.6758 50.32H49.7399C51.1723 50.32 52.4049 49.3073 52.6829 47.9021L58.7438 17.2622C59.1107 15.4075 57.6914 13.68 55.8009 13.68L53.3067 13.68Z" fill="#4099FF"/>
<path d="M14.6138 13.68C13.1927 13.68 11.9666 14.6771 11.6768 16.0683L5.29556 46.7083C4.90758 48.5712 6.32968 50.32 8.23254 50.32H11.0722L18.32 13.68L14.6138 13.68Z" fill="#4099FF"/>
</svg>
